<svg viewBox="0 0 512 512" xmlns="http://www.w3.org/2000/svg" xmlns:xlink="http://www.w3.org/1999/xlink"><linearGradient id="a" gradientTransform="matrix(1 0 0 -1 0 -17466)" gradientUnits="userSpaceOnUse" x1="0" x2="512" y1="-17722" y2="-17722"><stop offset="0" stop-color="#31d8ff"/><stop offset="1" stop-color="#ff80ff"/></linearGradient><path d="m512 256c0 141.386719-114.613281 256-256 256s-256-114.613281-256-256 114.613281-256 256-256 256 114.613281 256 256zm0 0" fill="url(#a)"/><path d="m368.371094 279.746094c-6.339844 0-12.492188.820312-18.363282 2.355468l-48.832031-97.667968c16.710938-13.320313 27.453125-33.828125 27.453125-56.808594 0-40.046875-32.582031-72.625-72.628906-72.625s-72.628906 32.578125-72.628906 72.625c0 22.980469 10.742187 43.488281 27.453125 56.808594l-48.832031 97.667968c-5.871094-1.535156-12.023438-2.355468-18.363282-2.355468-40.050781 0-72.628906 32.578125-72.628906 72.625s32.578125 72.628906 72.628906 72.628906c40.046875 0 72.625-32.582031 72.625-72.628906 0-22.980469-10.742187-43.488282-27.453125-56.804688l48.835938-97.671875c5.867187 1.535157 12.019531 2.359375 18.363281 2.359375 6.339844 0 12.496094-.824218 18.363281-2.359375l48.835938 97.671875c-16.714844 13.316406-27.457031 33.824219-27.457031 56.804688 0 40.046875 32.582031 72.628906 72.628906 72.628906s72.628906-32.582031 72.628906-72.628906-32.578125-72.625-72.628906-72.625zm-224.742188 115.253906c-23.507812 0-42.628906-19.121094-42.628906-42.628906 0-23.503906 19.121094-42.625 42.628906-42.625 23.503906 0 42.625 19.121094 42.625 42.625 0 23.507812-19.121094 42.628906-42.625 42.628906zm69.742188-267.375c0-23.503906 19.125-42.625 42.628906-42.625s42.628906 19.121094 42.628906 42.625c0 23.507812-19.125 42.628906-42.628906 42.628906s-42.628906-19.121094-42.628906-42.628906zm155 267.375c-23.503906 0-42.625-19.121094-42.625-42.628906 0-23.503906 19.121094-42.625 42.625-42.625 23.507812 0 42.628906 19.121094 42.628906 42.625 0 23.507812-19.121094 42.628906-42.628906 42.628906zm0 0" fill="#fff"/></svg>