<?xml version="1.0" encoding="iso-8859-1"?>
<!-- Generator: Adobe Illustrator 19.2.1, SVG Export Plug-In . SVG Version: 6.00 Build 0)  -->
<svg version="1.1" xmlns="http://www.w3.org/2000/svg" xmlns:xlink="http://www.w3.org/1999/xlink" x="0px" y="0px"
	 viewBox="0 0 30 30" style="enable-background:new 0 0 30 30;" xml:space="preserve">
<g id="Flag">
</g>
<g id="Umbrella">
</g>
<g id="Briefcase">
</g>
<g id="Box">
</g>
<g id="Magnet">
</g>
<g id="Percent">
</g>
<g id="Rocket">
</g>
<g id="Share">
	<path d="M25,20c-1.775,0-3.327,0.936-4.214,2.334L9.66,16.771C9.871,16.218,10,15.625,10,15s-0.129-1.218-0.34-1.771l11.125-5.563
		C21.673,9.064,23.225,10,25,10c2.757,0,5-2.243,5-5s-2.243-5-5-5s-5,2.243-5,5c0,0.626,0.129,1.219,0.34,1.771L9.214,12.334
		C8.327,10.936,6.775,10,5,10c-2.757,0-5,2.243-5,5s2.243,5,5,5c1.775,0,3.327-0.936,4.214-2.334l11.125,5.563
		C20.129,23.781,20,24.374,20,25c0,2.757,2.243,5,5,5s5-2.243,5-5S27.757,20,25,20z"/>
</g>
<g id="Transmitter">
</g>
<g id="Record_2">
</g>
<g id="Record_1">
</g>
<g id="Anchor">
</g>
<g id="Airplane">
</g>
<g id="Car">
</g>
<g id="Newsfeed">
</g>
<g id="Wifi_Tethering">
</g>
<g id="No_Wifi_Tethering">
</g>
<g id="Bar_Chart_2">
</g>
<g id="Shop">
</g>
<g id="Alarm">
</g>
<g id="Sim_Card">
</g>
<g id="Radar">
</g>
<g id="Hand_2">
</g>
<g id="Palette">
</g>
<g id="Cake">
</g>
<g id="Blende">
</g>
<g id="Feather_Pen">
</g>
<g id="Ticket">
</g>
<g id="Medal">
</g>
<g id="Mouse_Pointer_1">
</g>
<g id="Mouse_Pointer_2">
</g>
<g id="Fingerprint">
</g>
<g id="Earth">
</g>
</svg>
